# xmcd CD database file generated by Grip 3.2.0
# 
# Track frame offsets:
#       150
#       22520
#       40187
#       56430
#       73475
#       100937
#       120152
#       132682
#       149702
#       165672
#       176030
#       196897
#       210052
#       225945
#       243175
# 
# Disc length: 3455 seconds
# 
# Revision: 1
# Processed by: cddbd v1.5.1PL0 Copyright (c) Steve Scherf et al.
# Submitted via: Grip 3.2.0
# 
DISCID=c50d7d0f
DTITLE=女子十二楽坊 - 自由 ベストセレクション (ISC 2)
DYEAR=2004
DGENRE=Instrumental Pop
TTITLE0=無詞
TTITLE1=都市夜色
TTITLE2=Chase
TTITLE3=Hi! Salute To Bach
TTITLE4=奇跡
TTITLE5=Midnight Mood
TTITLE6=Take Five
TTITLE7=サリナの唄
TTITLE8=I Can't Be Your Man
TTITLE9=リズムの中で
TTITLE10=Toss
TTITLE11=Appointing In Mongolian House
TTITLE12=夢見る水の都
TTITLE13=予知
TTITLE14=花児與少年
EXTD=YEAR: 2004
EXTT0=
EXTT1=
EXTT2=
EXTT3=
EXTT4=
EXTT5=
EXTT6=
EXTT7=
EXTT8=
EXTT9=
EXTT10=
EXTT11=
EXTT12=
EXTT13=
EXTT14=
PLAYORDER=
